<?xml version="1.0" encoding="UTF-8" standalone="no"?>
<!DOCTYPE svg PUBLIC "-//W3C//DTD SVG 1.1//EN" "http://www.w3.org/Graphics/SVG/1.1/DTD/svg11.dtd">
<svg width="100%" height="100%" viewBox="0 0 2183 422" version="1.1" xmlns="http://www.w3.org/2000/svg" xmlns:xlink="http://www.w3.org/1999/xlink" xml:space="preserve" xmlns:serif="http://www.serif.com/" style="fill-rule:evenodd;clip-rule:evenodd;stroke-linejoin:round;stroke-miterlimit:2;">
    <g transform="matrix(1,0,0,1,-88.776803,-609.332982)">
        <g transform="matrix(2.114581,0,0,2.114581,-979.355111,-432.871806)">
            <g transform="matrix(215.874101,0,0,215.874101,500,647)">
                <path d="M0.216,0.01C0.19,0.01 0.165,0.006 0.141,-0.001C0.117,-0.007 0.096,-0.017 0.076,-0.03C0.056,-0.043 0.039,-0.058 0.024,-0.076L0.082,-0.135C0.099,-0.114 0.119,-0.098 0.142,-0.088C0.165,-0.077 0.19,-0.072 0.218,-0.072C0.246,-0.072 0.268,-0.077 0.283,-0.086C0.298,-0.096 0.306,-0.11 0.306,-0.127C0.306,-0.145 0.3,-0.158 0.287,-0.168C0.275,-0.177 0.259,-0.185 0.24,-0.192C0.22,-0.198 0.2,-0.204 0.178,-0.21C0.157,-0.216 0.137,-0.225 0.117,-0.235C0.098,-0.245 0.082,-0.258 0.07,-0.276C0.057,-0.293 0.051,-0.317 0.051,-0.345C0.051,-0.374 0.058,-0.398 0.072,-0.419C0.086,-0.44 0.105,-0.456 0.13,-0.468C0.156,-0.479 0.186,-0.485 0.221,-0.485C0.258,-0.485 0.291,-0.478 0.32,-0.465C0.349,-0.452 0.373,-0.433 0.392,-0.407L0.334,-0.349C0.32,-0.366 0.304,-0.38 0.284,-0.389C0.265,-0.398 0.243,-0.403 0.218,-0.403C0.192,-0.403 0.172,-0.398 0.158,-0.389C0.144,-0.38 0.138,-0.368 0.138,-0.352C0.138,-0.336 0.144,-0.324 0.156,-0.315C0.168,-0.306 0.184,-0.299 0.203,-0.293C0.223,-0.287 0.243,-0.281 0.265,-0.275C0.286,-0.268 0.307,-0.26 0.326,-0.249C0.346,-0.239 0.361,-0.224 0.374,-0.206C0.386,-0.188 0.392,-0.165 0.392,-0.135C0.392,-0.091 0.376,-0.055 0.345,-0.029C0.313,-0.003 0.27,0.01 0.216,0.01Z" style="fill:white;fill-rule:nonzero;"/>
            </g>
            <g transform="matrix(215.874101,0,0,215.874101,592.124273,647)">
                <path d="M0.139,-0L0.139,-0.674L0.229,-0.674L0.229,-0L0.139,-0ZM0.022,-0.393L0.022,-0.475L0.346,-0.475L0.346,-0.393L0.022,-0.393Z" style="fill:white;fill-rule:nonzero;"/>
            </g>
            <g transform="matrix(215.874101,0,0,215.874101,668.219893,647)">
                <path d="M0.268,0.01C0.224,0.01 0.185,-0.001 0.15,-0.023C0.115,-0.044 0.087,-0.074 0.066,-0.111C0.046,-0.148 0.036,-0.19 0.036,-0.237C0.036,-0.283 0.046,-0.325 0.066,-0.363C0.087,-0.4 0.115,-0.43 0.15,-0.452C0.185,-0.474 0.224,-0.485 0.268,-0.485C0.304,-0.485 0.336,-0.478 0.365,-0.463C0.393,-0.448 0.416,-0.427 0.433,-0.4C0.45,-0.374 0.46,-0.343 0.462,-0.309L0.462,-0.166C0.46,-0.132 0.45,-0.101 0.433,-0.075C0.416,-0.048 0.394,-0.028 0.365,-0.013C0.337,0.003 0.304,0.01 0.268,0.01ZM0.283,-0.075C0.328,-0.075 0.364,-0.09 0.391,-0.12C0.418,-0.15 0.432,-0.189 0.432,-0.237C0.432,-0.269 0.426,-0.298 0.413,-0.322C0.401,-0.347 0.383,-0.366 0.361,-0.379C0.338,-0.393 0.312,-0.4 0.282,-0.4C0.252,-0.4 0.226,-0.393 0.203,-0.379C0.18,-0.365 0.162,-0.346 0.148,-0.322C0.135,-0.297 0.129,-0.269 0.129,-0.238C0.129,-0.206 0.135,-0.178 0.148,-0.153C0.162,-0.129 0.18,-0.11 0.203,-0.096C0.226,-0.082 0.253,-0.075 0.283,-0.075ZM0.426,-0L0.426,-0.128L0.443,-0.244L0.426,-0.358L0.426,-0.475L0.516,-0.475L0.516,-0L0.426,-0Z" style="fill:white;fill-rule:nonzero;"/>
            </g>
            <g transform="matrix(215.874101,0,0,215.874101,793.912588,647)">
                <path d="M0.263,0.209C0.214,0.209 0.171,0.2 0.133,0.182C0.096,0.164 0.066,0.139 0.043,0.106L0.101,0.047C0.12,0.072 0.143,0.091 0.17,0.104C0.196,0.117 0.228,0.123 0.265,0.123C0.313,0.123 0.352,0.11 0.38,0.085C0.409,0.059 0.423,0.025 0.423,-0.019L0.423,-0.137L0.439,-0.243L0.423,-0.35L0.423,-0.475L0.513,-0.475L0.513,-0.019C0.513,0.026 0.503,0.066 0.481,0.1C0.46,0.134 0.431,0.161 0.394,0.18C0.356,0.199 0.312,0.209 0.263,0.209ZM0.263,-0.007C0.22,-0.007 0.181,-0.018 0.146,-0.039C0.112,-0.06 0.085,-0.088 0.065,-0.124C0.045,-0.161 0.035,-0.202 0.035,-0.247C0.035,-0.292 0.045,-0.333 0.065,-0.368C0.085,-0.404 0.112,-0.433 0.146,-0.454C0.181,-0.475 0.22,-0.485 0.263,-0.485C0.3,-0.485 0.333,-0.478 0.362,-0.463C0.39,-0.448 0.413,-0.428 0.43,-0.401C0.447,-0.375 0.456,-0.344 0.458,-0.309L0.458,-0.183C0.456,-0.149 0.447,-0.118 0.429,-0.091C0.412,-0.065 0.389,-0.044 0.361,-0.03C0.332,-0.015 0.3,-0.007 0.263,-0.007ZM0.281,-0.093C0.31,-0.093 0.336,-0.099 0.358,-0.112C0.38,-0.125 0.398,-0.142 0.41,-0.166C0.422,-0.189 0.428,-0.215 0.428,-0.246C0.428,-0.277 0.422,-0.304 0.41,-0.327C0.397,-0.35 0.38,-0.367 0.358,-0.38C0.336,-0.393 0.31,-0.4 0.28,-0.4C0.25,-0.4 0.224,-0.393 0.201,-0.38C0.178,-0.367 0.16,-0.35 0.147,-0.327C0.134,-0.304 0.128,-0.277 0.128,-0.246C0.128,-0.216 0.134,-0.19 0.147,-0.167C0.16,-0.143 0.178,-0.125 0.201,-0.112C0.224,-0.099 0.251,-0.093 0.281,-0.093Z" style="fill:white;fill-rule:nonzero;"/>
            </g>
            <g transform="matrix(215.874101,0,0,215.874101,918.795756,647)">
                <path d="M0.286,0.01C0.238,0.01 0.196,-0.001 0.158,-0.022C0.12,-0.044 0.09,-0.073 0.068,-0.111C0.046,-0.148 0.035,-0.191 0.035,-0.238C0.035,-0.285 0.046,-0.327 0.067,-0.364C0.089,-0.401 0.118,-0.431 0.155,-0.452C0.193,-0.474 0.234,-0.485 0.28,-0.485C0.324,-0.485 0.362,-0.475 0.396,-0.455C0.43,-0.435 0.456,-0.407 0.475,-0.372C0.495,-0.337 0.504,-0.297 0.504,-0.252C0.504,-0.245 0.504,-0.238 0.503,-0.23C0.502,-0.222 0.501,-0.214 0.499,-0.204L0.098,-0.204L0.098,-0.279L0.451,-0.279L0.418,-0.25C0.418,-0.282 0.412,-0.309 0.401,-0.332C0.39,-0.354 0.374,-0.371 0.353,-0.384C0.333,-0.396 0.307,-0.402 0.278,-0.402C0.247,-0.402 0.22,-0.395 0.197,-0.382C0.174,-0.368 0.156,-0.35 0.143,-0.326C0.13,-0.302 0.124,-0.273 0.124,-0.24C0.124,-0.207 0.131,-0.178 0.144,-0.153C0.158,-0.128 0.177,-0.109 0.201,-0.095C0.226,-0.081 0.254,-0.074 0.286,-0.074C0.312,-0.074 0.337,-0.079 0.359,-0.089C0.382,-0.098 0.401,-0.112 0.417,-0.131L0.475,-0.072C0.452,-0.046 0.424,-0.025 0.391,-0.011C0.358,0.003 0.323,0.01 0.286,0.01Z" style="fill:white;fill-rule:nonzero;"/>
            </g>
            <g transform="matrix(215.874101,0,0,215.874101,1034.504274,647)">
                <rect x="0.02" y="0.046" width="0.465" height="0.078" style="fill:white;"/>
            </g>
            <g transform="matrix(215.874101,0,0,215.874101,1143.466726,647)">
                <path d="M0.316,0.01C0.28,0.01 0.247,0.002 0.218,-0.013C0.19,-0.028 0.167,-0.049 0.149,-0.075C0.132,-0.102 0.122,-0.132 0.12,-0.166L0.12,-0.309C0.122,-0.343 0.132,-0.374 0.15,-0.401C0.167,-0.427 0.191,-0.448 0.22,-0.463C0.248,-0.478 0.28,-0.485 0.316,-0.485C0.359,-0.485 0.398,-0.474 0.433,-0.452C0.468,-0.43 0.496,-0.4 0.516,-0.363C0.536,-0.326 0.546,-0.284 0.546,-0.237C0.546,-0.19 0.536,-0.148 0.516,-0.111C0.496,-0.074 0.468,-0.044 0.433,-0.023C0.398,-0.001 0.359,0.01 0.316,0.01ZM0.066,-0L0.066,-0.714L0.156,-0.714L0.156,-0.358L0.139,-0.244L0.156,-0.128L0.156,-0L0.066,-0ZM0.301,-0.075C0.331,-0.075 0.357,-0.082 0.38,-0.096C0.403,-0.11 0.421,-0.129 0.434,-0.153C0.447,-0.178 0.454,-0.206 0.454,-0.238C0.454,-0.269 0.447,-0.297 0.434,-0.322C0.421,-0.346 0.403,-0.365 0.38,-0.379C0.357,-0.393 0.331,-0.4 0.301,-0.4C0.272,-0.4 0.246,-0.393 0.223,-0.379C0.2,-0.365 0.182,-0.346 0.17,-0.322C0.157,-0.297 0.15,-0.269 0.15,-0.237C0.15,-0.206 0.157,-0.178 0.169,-0.153C0.182,-0.129 0.2,-0.11 0.222,-0.096C0.245,-0.082 0.271,-0.075 0.301,-0.075Z" style="fill:white;fill-rule:nonzero;"/>
            </g>
            <g transform="matrix(215.874101,0,0,215.874101,1269.159421,647)">
                <rect x="0.066" y="-0.714" width="0.09" height="0.714" style="fill:white;"/>
            </g>
            <g transform="matrix(215.874101,0,0,215.874101,1317.029503,647)">
                <path d="M0.258,0.01C0.218,0.01 0.183,0.001 0.152,-0.017C0.121,-0.034 0.097,-0.059 0.08,-0.09C0.063,-0.121 0.054,-0.158 0.054,-0.199L0.054,-0.475L0.144,-0.475L0.144,-0.203C0.144,-0.177 0.149,-0.154 0.158,-0.136C0.167,-0.117 0.18,-0.102 0.197,-0.092C0.214,-0.082 0.234,-0.076 0.258,-0.076C0.293,-0.076 0.321,-0.088 0.341,-0.11C0.361,-0.133 0.371,-0.163 0.371,-0.203L0.371,-0.475L0.461,-0.475L0.461,-0.199C0.461,-0.157 0.452,-0.121 0.435,-0.09C0.418,-0.058 0.394,-0.034 0.363,-0.016C0.333,0.001 0.298,0.01 0.258,0.01Z" style="fill:white;fill-rule:nonzero;"/>
            </g>
            <g transform="matrix(215.874101,0,0,215.874101,1428.366571,647)">
                <path d="M0.286,0.01C0.238,0.01 0.196,-0.001 0.158,-0.022C0.12,-0.044 0.09,-0.073 0.068,-0.111C0.046,-0.148 0.035,-0.191 0.035,-0.238C0.035,-0.285 0.046,-0.327 0.067,-0.364C0.089,-0.401 0.118,-0.431 0.155,-0.452C0.193,-0.474 0.234,-0.485 0.28,-0.485C0.324,-0.485 0.362,-0.475 0.396,-0.455C0.43,-0.435 0.456,-0.407 0.475,-0.372C0.495,-0.337 0.504,-0.297 0.504,-0.252C0.504,-0.245 0.504,-0.238 0.503,-0.23C0.502,-0.222 0.501,-0.214 0.499,-0.204L0.098,-0.204L0.098,-0.279L0.451,-0.279L0.418,-0.25C0.418,-0.282 0.412,-0.309 0.401,-0.332C0.39,-0.354 0.374,-0.371 0.353,-0.384C0.333,-0.396 0.307,-0.402 0.278,-0.402C0.247,-0.402 0.22,-0.395 0.197,-0.382C0.174,-0.368 0.156,-0.35 0.143,-0.326C0.13,-0.302 0.124,-0.273 0.124,-0.24C0.124,-0.207 0.131,-0.178 0.144,-0.153C0.158,-0.128 0.177,-0.109 0.201,-0.095C0.226,-0.081 0.254,-0.074 0.286,-0.074C0.312,-0.074 0.337,-0.079 0.359,-0.089C0.382,-0.098 0.401,-0.112 0.417,-0.131L0.475,-0.072C0.452,-0.046 0.424,-0.025 0.391,-0.011C0.358,0.003 0.323,0.01 0.286,0.01Z" style="fill:white;fill-rule:nonzero;"/>
            </g>
        </g>
    </g>
</svg>
